<?xml version="1.0" encoding="UTF-8" standalone="no" ?>
<!DOCTYPE svg PUBLIC "-//W3C//DTD SVG 1.1//EN" "http://www.w3.org/Graphics/SVG/1.1/DTD/svg11.dtd">
<svg xmlns="http://www.w3.org/2000/svg" xmlns:xlink="http://www.w3.org/1999/xlink" version="1.1" width="1500" height="200" viewBox="0 0 1500 200" xml:space="preserve">
<desc>Created with Fabric.js 5.2.4</desc>
<defs>
</defs>
<g transform="matrix(1 0 0 1 750 100)" id="8eaf6559-f113-4cbf-924e-0c219a5b9cae"  >
<rect style="stroke: none; stroke-width: 1; stroke-dasharray: none; stroke-linecap: butt; stroke-dashoffset: 0; stroke-linejoin: miter; stroke-miterlimit: 4; fill: rgb(255,255,255); fill-rule: nonzero; opacity: 1; visibility: hidden;" vector-effect="non-scaling-stroke"  x="-750" y="-100" rx="0" ry="0" width="1500" height="200" />
</g>
<g transform="matrix(Infinity NaN NaN Infinity 0 0)" id="194356b7-12e7-4b08-aa27-513135d9adcd"  >
</g>
<g transform="matrix(2.1 0 0 2.1 750 100)"  >
<g style="" vector-effect="non-scaling-stroke"   >
		<g transform="matrix(1.56 0 0 1.56 -225.01 0)"  >
<path style="stroke: none; stroke-width: 1; stroke-dasharray: none; stroke-linecap: butt; stroke-dashoffset: 0; stroke-linejoin: miter; stroke-miterlimit: 4; fill: rgb(238,236,223); fill-rule: nonzero; opacity: 1;" vector-effect="non-scaling-stroke"  transform=" translate(-367.35, 25.2)" d="M 330.107 -50.4 L 326.435 -50.4 L 303.25 0 L 307.21 0 L 328.234 -46.368 L 349.33 0 L 353.28999999999996 0 z M 362.44 -50.4 L 362.44 0 L 395.128 0 L 395.128 -3.312 L 366.11199999999997 -3.312 L 366.11199999999997 -50.4 Z M 409.635 -47.088 L 409.635 0 L 413.307 0 L 413.307 -47.088 L 431.451 -47.088 L 431.451 -50.4 L 391.49100000000004 -50.4 L 391.49100000000004 -47.088 z" stroke-linecap="round" />
</g>
		<g transform="matrix(1.56 0 0 1.56 106.74 0)"  >
<path style="stroke: none; stroke-width: 1; stroke-dasharray: none; stroke-linecap: butt; stroke-dashoffset: 0; stroke-linejoin: miter; stroke-miterlimit: 4; fill: rgb(178,204,219); fill-rule: nonzero; opacity: 1;" vector-effect="non-scaling-stroke"  transform=" translate(-580.62, 25.2)" d="M 488.151 0 L 491.75100000000003 0 L 491.67900000000003 -50.4 L 488.65500000000003 -50.4 L 466.12 -11.448 L 443.583 -50.4 L 440.487 -50.4 L 440.487 0 L 444.08700000000005 0 L 444.08700000000005 -42.984 L 465.18300000000005 -6.696000000000005 L 466.98300000000006 -6.696000000000005 L 488.07900000000006 -43.12800000000001 z M 509.253 -50.4 L 509.253 0 L 512.925 0 L 512.925 -50.4 z M 571.527 -50.4 L 567.855 -50.4 L 567.855 -6.623999999999995 L 533.583 -50.4 L 530.487 -50.4 L 530.487 0 L 534.159 0 L 534.159 -43.776 L 568.503 0 L 571.527 0 z M 589.128 -50.4 L 589.128 0 L 592.8000000000001 0 L 592.8000000000001 -50.4 z M 658.026 0 L 661.626 0 L 661.554 -50.4 L 658.53 -50.4 L 635.9939999999999 -11.448 L 613.458 -50.4 L 610.362 -50.4 L 610.362 0 L 613.962 0 L 613.962 -42.984 L 635.058 -6.696000000000005 L 636.858 -6.696000000000005 L 657.954 -43.12800000000001 z M 697.56 -50.4 L 693.8879999999999 -50.4 L 670.704 0 L 674.664 0 L 695.688 -46.368 L 716.784 0 L 720.744 0 z" stroke-linecap="round" />
</g>
</g>
</g>
</svg>